<?xml version="1.0" encoding="UTF-8" standalone="no"?>
<!DOCTYPE svg PUBLIC "-//W3C//DTD SVG 1.1//EN" "http://www.w3.org/Graphics/SVG/1.1/DTD/svg11.dtd">
<svg width="100%" height="100%" viewBox="0 0 800 241" version="1.1" xmlns="http://www.w3.org/2000/svg" xmlns:xlink="http://www.w3.org/1999/xlink" xml:space="preserve" xmlns:serif="http://www.serif.com/" style="fill-rule:evenodd;clip-rule:evenodd;stroke-linejoin:round;stroke-miterlimit:2;">
    <g transform="matrix(1,0,0,1,0,-277.361)">
        <g id="logotype" transform="matrix(1,0,0,0.30125,0,277.361)">
            <rect x="0" y="0" width="800" height="800" style="fill:none;"/>
            <g transform="matrix(1,0,0,3.3195,0,-28.6999)">
                <path d="M159.651,87.67L210.043,87.67C203.63,41.286 162.743,8.646 109.717,8.646C47.758,8.646 0,53.312 0,129.358C0,203.571 44.666,249.611 110.748,249.611C169.959,249.611 212.219,212.161 212.219,150.431L212.219,120.883L114.069,120.883L114.069,158.219L164.461,158.219C163.774,187.309 143.961,205.747 110.977,205.747C73.756,205.747 50.278,177.917 50.278,128.9C50.278,80.111 74.672,52.51 110.519,52.51C136.059,52.51 153.352,65.68 159.651,87.67ZM335.319,241.662L484.501,241.662L484.501,203.181L381.993,203.181L381.993,150.471L476.417,150.471L476.417,111.99L381.993,111.99L381.993,59.388L484.07,59.388L484.07,20.907L335.319,20.907L335.319,241.662ZM800,20.907L753.542,20.907L753.542,159.741L751.602,159.741L656.315,20.907L615.355,20.907L615.355,241.662L662.028,241.662L662.028,102.72L663.645,102.72L759.686,241.662L800,241.662L800,20.907Z" style="fill-rule:nonzero;"/>
            </g>
        </g>
    </g>
</svg>
